<svg xmlns="http://www.w3.org/2000/svg" width="575.25" height="666.527" viewBox="0 0 575.25 666.527">
  <g id="VectorImage" transform="translate(-49 -381.424)">
    <path id="t-shirt-border_black" d="M50,863.846A53.057,53.057,0,0,1,66.483,858c8.97-1.426,10.211-1.4,19.4.138s7.348,1.766,13.51,2.382,6.523-2.382,6.523-2.382L110,854.952l10.771-5.1s7.573-3.478,10.984-5.139,10.665-5.048,10.665-5.048l5-3.535,3.885-2.7,3.046-1.676,3.991-1.807h1.676l3.289-2.478,3.914-2.448,3.227-1.957h3.84l3.684-1.96,2.327-3.842,3.211-3.676,4.1-3.145,3.651-1.833h3.32l5.167-1.431,4.868-2.681h3.027l10.109-6.189s-1.383.819,2.3-1.523a16.607,16.607,0,0,1,7.234-2.538h2.374l2.788-2.445h3.137l2.618-2.4h5.146l1.9-2.988,2.253-1.464,9.534,1.464,3.786-2.893,4.055-3.377-4.055,6.27-3.786,5.391v6.506l-4.231,8.87V821.1l4.231,15.03v18.819l2.328,1.212,1.458,5.78v5.641l-2.335,1.642-5.375,4.118s-2.8,2.223-9.715,1.346-7.815-1.738-7.815-1.738l-5.033-1.841-3.758-4.068-6.742-8.9-2.3-3.188-1.671-2.852s1.451-1.888-2.759-2.245a61.609,61.609,0,0,0-8.707,0s-4.814-.784-13.355,2.245-12.529,2.5-20.812,6.04-5.693.624-14.522,7.252-11.2,8.655-17.826,15.458-20.247,18.525-20.247,18.525.033,1.615-7.852,4.99-15.648,7.893-24.119,7.984a104.777,104.777,0,0,0-16.868,1.762V899.375l-1.408-6.4-1.891-8.009-1.5-5.337-1.846-5.122-1.77-3.046-1.382-3.876-3.719-.54-5.492.54Z" transform="translate(0 -0.669)" fill="#707070" stroke="#000" stroke-width="2"/>
    <path id="border-black" d="M69.065,913.667c-.447.316.275-.789,0,0s1.109,3.867,2.52,3.867h3.3l2.418-.267,3.222-.411h3.142s1.79-.338,3.833-.577,4.808-.625,4.808-.625,2.294-.576,3.615-.913c1.8-.452,3.619-1.116,3.619-1.116l3.9-1.027,3.748-1.75,3.8-2.023a35.008,35.008,0,0,0,3.925-2.457c1.819-1.348,8.111-5.957,8.111-5.957l5.09-4.723,3.252-3.226,2.258-2.274,3.388-3.239,2.959-3.239,5.167-4.55,5.816-5.48s1.716-1.563,3.536-3a37.71,37.71,0,0,1,3.743-2.752,36.943,36.943,0,0,1,3.518-2.041l3.877-2.04,4.224-1.634a16.31,16.31,0,0,1,3.425-1.5,38.349,38.349,0,0,1,4.724-1.044l3.955-.968,3.961-1.313,4.663-1.5,5-.986,4.861-.745,3.51-.4,3.771-.356a13.332,13.332,0,0,1,2.909,0c1.264.19,2.609.356,2.609.356a4.169,4.169,0,0,1,1.833,1.148c.605.782.593,1.936,1.144,3.129a5.258,5.258,0,0,0,1.061,1.643l1.023,1.044.77,1.031,1.31,1.112,1.723,1.775.943,1.744,1.325,1.973,1.12,1.751,1.4,1.708s.762.727,1.423,1.382.889.365,1.666.96,1.055.386,2.125,1A17.5,17.5,0,0,0,234.8,876.3s1.755.536,3.948,1.039a51.957,51.957,0,0,0,7.394.56,15.694,15.694,0,0,0,6.077-.56A18.668,18.668,0,0,0,257,875.148a18.333,18.333,0,0,0,3.522-2.753l1.754-1.4a2.5,2.5,0,0,0,0-1.6c-.29-.9-.2-2-1.159-2s-2.669,2-2.669,2-1.891,1.4-3.33,2.452-2.426,1.744-2.426,1.744a26.542,26.542,0,0,1-4.433.553h-3.5a6.663,6.663,0,0,0-2.4.339l-2.483-.339-1.54-.265-3.526-1.154-3.047-1.235a54.353,54.353,0,0,1-4.226-4.1,32.922,32.922,0,0,1-3.935-5.654l-3.2-3.718-1.31-1.108-.77-2.021-2.083-3.951s-.6-.605-3.725-1.058a47.39,47.39,0,0,0-7.32-.265s-2.822,0-5.509.265a35.52,35.52,0,0,0-5.454,1.058l-4.87,1.431-5.458,1.775-6.208,1.731-4.963,1.035-2.408,1.108a12.241,12.241,0,0,0-2.441.675c-1.35.522-2.235.968-2.235.968a7.434,7.434,0,0,0-2.719.755c-1.323.685-1.344.925-2.827,1.79s-1.4.824-3.108,1.96-2.485,1.853-4.334,3.225-7.5,6.75-7.5,6.75a81.669,81.669,0,0,0-6.76,6.22c-3.333,3.464-5.552,5.359-8.043,7.759s-6.511,5.889-9.254,8.3-1.012.767-1.718,1.351a5.032,5.032,0,0,0-1.107.985c-.57.658-.447.365-1.375,1.274a11.4,11.4,0,0,1-2.7,2.139c-1.463.889-3.188,1.794-3.188,1.794s-2.252,1.105-5.175,2.4c-2.156.955-4.925,2.076-6.583,2.749a33.693,33.693,0,0,1-6.932,2.162c-3.131.754-2.449.782-5.487.995s-3.7.047-6.665.323-3.127.373-5.271.64-1.784.211-3.3.429S69.512,913.351,69.065,913.667Z" transform="translate(0 -0.699)"/>
    <path id="left_tshirt" d="M50,867.94h9.29a21.347,21.347,0,0,1,3.578,8.2c1.31,5.482,2.309,7.159,3.65,14.1s3.04,5.638,2.948,12.978,0,10.311,0,10.311v3.243a15.863,15.863,0,0,0,7.685.8c4.014-.679,4.192-.522,9.1-1.225s10.539-1.587,10.539-1.587a79.493,79.493,0,0,0,9.815-3.568,59.1,59.1,0,0,0,8.3-4.719l5.773-4.07,5.747-4.73,6.782-6.765,4.319-4.723,7.725-7.238,6.518-6.1a61.259,61.259,0,0,1,8.693-6.279c3.633-1.913,11.253-5.508,13.018-5.947s12.631-3.134,15.177-4.2a10.837,10.837,0,0,1,4.547-.917l4.17-.912,2.344-.3,2.044-.278,2.8-.491h2.345l2.736-.186,1.24.186a6.536,6.536,0,0,1,2.455.09,4.125,4.125,0,0,1,1.771,1.177l.949,3.11,1.1,1.671s1.287,1.146,1.724,1.62,1.262,1.477,1.262,1.477l1.06,1.039.651.617,1.02,2,1.415,1.99,2.271,3.18,1.485,1.377.9.71,1.373.836,2.054.809,1.879.821s-.01.137,2.2.838,3.339.777,6.794,1.008a45.611,45.611,0,0,0,8.663-.445c1.676-.217,4.131-1.8,5.57-2.658a31.417,31.417,0,0,0,3.743-2.989l.5-.459.511-.488v-1.717l-.511-1.586-.5-.37s1.195,7.124,0-1.636-.28-3.644-1.815-10.759-.091-1.135-2.037-12.937-3.068-5-3.529-17.643-2.718-10.685,0-18.426-2.039-2.634,3.493-11.877,5.9-10.841,5.9-10.841l1.258-1.708,2.876-2.31.626-1.33,1.272-1s-.2,3.384,2.324-2.958,3.307-5.469,6.359-12.789-.992-3.317,4.854-10.735,3.928-7.71,9.734-11.781,4.3-5,6.694-5.574a8.886,8.886,0,0,1,4.272,0v3.156l-2.9,7.116-2.814,4.983-2.874,4.382-2.377,3.95-1.3,3.218s-1.419,7.128-1.244,7.807-2.583,4.388-2.02,10.22,1,6.456,4.563,12.757,4.345,12.861,8.579,20.6,4.1,15.28,9.579,23.564,5.29,14.883,10.712,23.608,6.115,23.416,13.919,34.116,8.35,14.241,19.4,30.729S367,947.638,380.053,962.016s13.963,13.2,17.766,18.454,5.546,5.777,4.966,9.928-1.167,5.06-1.167,5.06h-1.959l-1.839-.822h-.753V998l2.593.935h1.25l1.877,1.1,1.387.657,1.658,2.24v3.225l.9,1.044,1.169.711,1.436.684,1.645.6,1.2.632,1.8,1.122,1.666.953h1.2l1.162,1.278,1.534,1.5,1.122,1.919s-1.384-.858.685,2.061,2.261,4.915,4.376,5.992a54.388,54.388,0,0,1,5.045,3.119l1.657,2.455,1.939,2.861,1.82,2.756,2.205,4.473,2.545,3.4,1.218,3.3H443.2l-392.5.941Z" transform="translate(0 -0.894)" fill="#a2acb2" stroke="#000" stroke-width="1"/>
    <path id="left-Couler" d="M262.4,873.439l2,9.871a137.846,137.846,0,0,0,3.07,13.591c1.96,6.855,3.633,18.039,6.889,26.54s9.934,27.547,9.934,27.547L295.8,978.57l19.354,40.527h1.382v1.375h2.831s-2.018,3.738,17.638-4.206,25.174-10.71,25.174-10.71l6.947-4.491,6.822-3.717,6.275-4.181,5.607-4,2.878-4.115,4.281-3.73V978.57l-7.159-7.8s-11.426-11.642-13.549-14.164-7.822-12.566-7.822-12.566l-6.493-11.1-4.254-6.713-5.643-8.393-9.759-16.4-5.628-8.512-2.911-4.242-1.576-3.7-3.09-7.732-1.474-5.868L324,865.764l-1.915-4.085-2.639-4.246-2.266-4.971-.932-3.164-1.857-4.735-1.867-4.217-1.63-3.424-4.339-6.555-2.542-9.04-2.086-6.218-2.611-4.676-1.89-3.882-1.339-3.255-1.876-5.814-1.27-4.374-2.77-5.268-2.346-5.32-1.3-8.174,2.214-6.884,1.436-8.13,2.032-5.083,2.785-4.792,3.322-4.778,2.587-4.354,1.03-3.1s2.109-2.76,0-3.505-4.5,1.469-4.5,1.469l-3.215,3.286-4.04,3.219-2.346,2.989-3.34,4.778-1.493,2-1.14,1.9-.992.893-.732,3.111-.785,2.771-2.522,5.041-2.748,5.641-1,2.648-.831,2.1-.894,1.735-1.116.76h-1.215l-1.395,1.648-1.784,1.72-1.428,1.094-1.126,2.118-.878,3.2-1.486,1.358-3.11,5.953-1.393,2.332v1.7l-.794,2.207v1.9l-.809,1.613-.816,4.2v8.6l.816,1.842v7.963l.809,3.822,1.036,1.766v1.98L257.928,838,259,841.766l.507,5.206,1.23,8.286,1.669,10.507.886,4.04v1.583Z" transform="translate(-0.287 -0.894)" fill="#bdc6d1" stroke="#000" stroke-width="2"/>
    <path id="Path_3" data-name="Path 3" d="M402.583,994.2s8.8,6.776,10.866,8.451-.986-.969,3.537,3.082c0,0,.416-.146,3.234,2.962s2.786,3.918,7.638,9.958a120.749,120.749,0,0,1,9.155,12.512,84.126,84.126,0,0,1,7.46,12.82c2.063,4.293.964,4.144.964,4.144h-3.084v-1.224l-.353-1.554-.641-1.805-1.619-2.034s.754,1.035-.137-.172A15.339,15.339,0,0,1,437.79,1038a11.088,11.088,0,0,0-1.289-2.2l-2.152-3.5-2.084-3.1-1.132-1.791-2.431-1.521s-1.721-.979-3.078-1.879a6.357,6.357,0,0,1-2.037-2.469l-1.672-2.878-1.265-1.773a3.057,3.057,0,0,0-.43-1.955,9.723,9.723,0,0,0-2.035-2.19,9.286,9.286,0,0,0-1.2-1.078,4.355,4.355,0,0,1-1.262-.279,12.537,12.537,0,0,1-2.274-1.321s-1.347-.613-2.848-1.363a27.432,27.432,0,0,1-3.32-1.518c-1.093-.741-1.053-1.446-1.053-1.446v-3.08l-2.521-2.581-1.855-1.028-1.823-.45a7.385,7.385,0,0,1-2.163-.62,1.01,1.01,0,0,1-.527-1.046l.233-1.848,2.456.836a9.278,9.278,0,0,0,1.823-.215A7.463,7.463,0,0,0,402.583,994.2Z" transform="translate(-0.402 -0.894)" fill="#343434"/>
    <g id="neck" transform="translate(287.386 668.076)">
      <path id="neck02" d="M290.242,779.853c1.35-.412,3.674-.849,3.674-.849a31.21,31.21,0,0,0,7.108-2.738c2.825-1.687,1.768-1.748,4.19-4.009s5.5-5.034,5.5-5.034l9.475-5.923,2.069-4.12,1.672-3.655,4.142,5L339.01,769.43l10.569,10.709,8.379,8.565,7.136,7.2,8.07,8.445s6.659,6.584,9.784,7.77,11.614,4.618,12.171,5.514,6.436,8.3,6.847,9.034,7.029,10.021,7.029,10.021l10.248,9.359,7.848,7.866,16.964,9.049h4.8s6.923-3.22,8.115-4.709,3.62-4.34,3.62-4.34l2.089-5.177v-4.48l1.157-4.864v-5.707l-1.157-4.254V824.6s-1.035,1.936,0-6.961,1.157-11.126,1.157-11.126l2-6.186,2.535-4.883v-4.413s-.4-2.7,0-3.42a25.627,25.627,0,0,0,.738-4.576l-.738-2.339-6.482,2.339s-17.982-5.083-28.9-9.156-19.077-6.059-31.032-11.8-24.745-12.433-24.745-12.433L358.8,737.3l-21.422-17.29-10.044-17.3-3.051-13.835-1.3-19.9-1.956,4.7-2.629,1.9-3.858,1.126-4.57,1.041h-4.144v1.8a154,154,0,0,1,.456,24c-.872,11.451-.558,26.782-2.654,27.429s0,1.029,0,1.029v3.554l-1.567,4.739-1.7,3.855-1.677,2.328-1.747,2.2-.9,1.72-1.086,2.042-1.031,2.313-1.191,2.174-.547,1.605-1.093,2.777-.534,3.52v3.243l-1.637,2.052-.463,2.846-.688,3.305.688,3.065S288.892,780.264,290.242,779.853Z" transform="translate(-287.764 -668.969)" fill="#e2cab6"/>
      <path id="neck01" d="M288.9,781.444v-2.523l2.442,1.041,2.939-1.041,2.677-.91,2.352-.836,1.122-.634,2.8-2.048.452-.876.91-.911,1.18-1.054.9-.915,1.317-1.13.586-.78.959-.883.894-1.011.929-.58,2-1.181,1.1-.692,1.874-.97,1.965-1.181,1.562-1,4.112-7.984,17.038,18.151L372,802.906l9.1,8.372,2.236.888,10.3,3.97,1.852,1.91,3.266,4.479,2.074,3.276,3.775,5.428,2.833,4.135,1.434,1.416,9.483,9.075a44.915,44.915,0,0,1,4.184,3.182c1.368,1.28,3.879,4.245,3.879,4.245l16.882,9.534,5.674.334,7.388-4.389,4.205-4.825,2.411-5.627-.53-3.816,1.242-4.942v-6.87l-1.242-2.907-.347-2.289v-2.992l4.442,20s2.418,9.44,2.714,14.267,4.067,15.139,4.135,22.894,1.308,5.219,1.566,18.245,3.468,21.736,2.4,31.062.014,3.947-.847,15.191.778,24.46,0,30.584,1.752,22.009,1.917,28.193a40.4,40.4,0,0,1-.8,10v9.705l-1.116,7.878v11.581l1.116,3.305H445.4s-8.286-20.1-14.35-25.119-4.192-7.047-11.022-13.9a144.528,144.528,0,0,0-16.3-13.524h-.814l1.039-6.291-1.039-2.974-1.576-2.812-1.81-1.521-2.281-3.18s-16.227-15.156-17.228-17.377-4.665-4.741-4.665-4.741L368.03,945.33l-3.223-7.117-5.574-8.933-4.327-7.663L347.979,911.3l-5.816-9.827-2.477-4.576-2.287-3.284-4.278-5.487-4.872-13.508-2.41-8.318-2.023-5.885-2.171-3.868-2.46-3.745-1.969-6.45-4.433-10.49-4.207-5.666-1.9-6.34-3.44-10.989-4.786-7.494-2.834-10.147s-1.189-2.014-2.866-5.459S288.9,781.444,288.9,781.444Z" transform="translate(-287.764 -668.969)" fill="#e2cab6"/>
    </g>
    <path id="neck_shadow" d="M288.914,780.139h6.033s3.252-2.186,6.077-3.873,1.768-1.748,4.19-4.009,5.5-5.034,5.5-5.034l9.475-5.923,2.069-4.12,1.672-3.655,4.142,5L339.01,769.43l10.569,10.709,8.379,8.565,7.136,7.2,8.07,8.445s6.659,6.584,9.784,7.77,11.614,4.618,12.171,5.514,6.436,9.271,6.847,10,5.471,9.811,5.471,9.811l11.805,8.6,7.848,7.866,16.479,10.6,5.288-1.548s6.923-3.22,8.115-4.709,3.62-4.34,3.62-4.34l2.089-5.177v-4.48l1.157-4.864v-5.707l-1.157-4.254V824.6s-1.035,1.936,0-6.961,1.157-11.126,1.157-11.126l2-6.186,2.535-4.883v-4.413s-.4-2.7,0-3.42a25.627,25.627,0,0,0,.738-4.576l-.738-2.339-6.482,2.339s-17.982-5.083-28.9-9.156-19.077-6.059-31.032-11.8-24.745-12.433-24.745-12.433L358.8,737.3l-21.422-17.29-10.044-17.3-3.051-13.835-1.3-19.9-1.956,4.7-2.629,1.9-3.858,1.126-4.57,1.041h-4.144v1.8a154,154,0,0,1,.456,24c-.872,11.451-.558,26.782-2.654,27.429s0,1.029,0,1.029v3.554l-1.567,4.739-1.7,3.855-1.677,2.328-1.747,2.2-.9,1.72-1.086,2.042-1.031,2.313-1.191,2.174-.547,1.605-1.093,2.777-.534,3.52v3.243l-1.637,2.052-.463,2.846v3.305l1.133,3.873Z" transform="translate(-0.369 -0.545)" fill="rgba(0,0,0,0.64)" opacity="0.413"/>
    <path id="right_couler" d="M468.137,786.594l6.2,5.425,2.128,5.294,1.361,5.62,1.931,4.783,2.74,4.214,3.117,2.635,3.229,4.184,6.83,8.409,7,10.87,6.786,9.455,9.381,14.295,18.176,28.776,22.675,31.651,3.187,4.427-10.008,8.213-10.784,10.111-10.865,7.572-7.5,5.654-6.744,4.579-7.517-7.222-13.788-12.884-8.6-9.511-7.32-5.213-1.931-1.3-.943-9.3-1.1-8.853-.783-6.43v-4.979l-1.038-9.827v-7.96l-2.273-9.4-2.318-10.482-1.232-8.857L466.67,843.4l-1.368-5.37-2.224-8.352v-2.518l-.885-9.85s2.01-8.623,1.735-10.643,4.208-11.545,4.208-11.545Z" transform="translate(-0.609 -0.894)" fill="#bdc6d1" stroke="#000" stroke-width="2"/>
    <path id="couler-Below" d="M477.538,926.61V933.1l-.841,10.092v42.964s2.209,11.994,1.743,17.2-.9,9.3-.9,9.3v5.246s.833,1.333,0,4.6a29.246,29.246,0,0,0-.842,6.328l-.833,5.557v5.137l.833,4.441v2.12l.842,1.233h16.837l23.41-83.609-30.846-29.99Z" transform="translate(-0.487 -0.894)" fill="#bdc6d1" stroke="#000" stroke-width="2"/>
    <line id="Line_1" data-name="Line 1" x1="25" y2="90" transform="translate(486.016 956.606)" fill="none" stroke="#000" stroke-width="3"/>
    <path id="right-T-Shirt_Border" d="M475.939,792.838l3.947,1.582,3.764,1.834,2.865.927h1.539l3.557,2.8,1.661,1.141,4.583,2.274,7.434,2.51,6.23,1.574,6.857,2.275,7.206,1.771,4.616,1.809,8.362,2.342,9.309,4.146,6.515,2.989,7.12,3.432,6.185,4.073,11.911,8.659s7.82,4.451,10.448,6.857a31.051,31.051,0,0,0,5.587,3.988,28.852,28.852,0,0,1,10.9,13.724c3.726,9.532,3.156,15.635,3.156,15.635l-3.828-2.813v-9.382l-2.344-4.153-3.286-4.775-3.826-4.14-8.346-5.245-6.447-4.529-5.572-3.812-4.491-2.128-3.86-1.392h-1.007L563.04,838.2l-4.7,3.357s-6.182,3.907-6.835,4.275-9.9,3.988-9.9,3.988l-5.107.843h-5.691l-8.724-.843-5.512-1.15-4.217-1.762-2.773-1.076-4.294-6.857-5.087-7.4-6.93-8.762-5.217-7.9-1.539-1.58-2.865-1.809-2.339-3.038-2.839-5.807-1-4.729Z" transform="translate(-0.609 -0.633)" fill="#707070" stroke="#000" stroke-width="2"/>
    <path id="T-shirt-Right" d="M510.105,846.272l6.418,2.7,8.627,2.3h9.415l9.195-1.409,5.32-2.409,4.049-2.156,3.866-2.877,3.62-2.343,2.779-1.5,3.017-.884h3.858l4.544,2.38,3.831,2.343,3.6,2.877,8.732,5.973,5.055,2.88,2.878,3.593,2.5,2.914,2.1,2.915,1.734,3,.858,2.448,1.1,4.686v2.451l1.551,1.546,2.608,5.8,4.669,10.5,2.91,10.038,2.83,11.994.957,15.441-.957,11.573v10.423l2.082,27.605v66.762H494.009l24.2-85.1,12.477-9.264,4.789-3.377,5.157-3.1,3.528-3.061,5.174-4.927,5.816-4.059,8.917-8.223-18.837-26.421-13.577-20.229Z" transform="translate(-0.609 -0.894)" fill="#a2acb2" stroke="#000" stroke-width="2"/>
    <path id="Face" d="M553.591,595.366l2.875,7.708,1.522,3v14.263l3.445,6.655s2.98,3.842,4.242,14.781.137,21.122,0,24.775-7.687,27.105-7.687,27.105l-4.4,9.279-2.962,8.471-2.738,7.1-2.049,7.678-3.233,12.482v11.03L539.184,763.6s-6.014,8.787-14.316,12.745-21.535,6.428-29.594,6.443-20.723,1.622-20.723,1.622l-4.465-1.622h-9.046l-21.121-6.443-30.374-11.117-36.263-17.439-33.962-20.723h0l-13.5-27.581L323.582,684.3V670.6s-1.129,3.641-3.225,4.854a21.189,21.189,0,0,1-4.268,1.831h-14.4L295.8,673.9l-6.008-3.3-3.936-3.4-3.061-4.72c-.765-1.18-1.46-8.185-1.46-8.185v-4.177l-2.413-8.371v-6.2l-5.772-8.113-5.5-12.768-1.395-11.031,1.395-12.624,5.5-13.358,5.772-4.6,6.934-2.031h6.25l3.694,2.031,5.888,2.454,6.046,4.049,5.8,2.891,4.875,3.822,5.165,14.017,4.382,32.68,11.358,5.453,5.483,1.438-1.463-16.107-5.054-55.627a49.384,49.384,0,0,1,13.585-35.414c15.2-15.785,11.7-13.713,16.493-17.4s14.029-10.777,14.029-10.777l12.439-6.47,19.945-1.254,15.159-14.1,3.382-3.734h10.664l10.51,3.734,6.887,7.072,4.949,4.339,11.02,6.352,14.167,2.691h10.022l14.592-2.691,7.311-8.822,2.008-3.378,11.409,16.262,8.148,11.029,7,12.634,5.979,10.742,4.824,10.146V572.65l-1.379,6.736-3.445,4.693-1.522,4.125-2.875,3.319v3.844Z" transform="translate(-0.609)" fill="#e2cab6" stroke="#000" stroke-width="1"/>
    <g id="Hair" transform="translate(259.33 381.924)">
      <path id="hair02" d="M305.553,723.035l-2.868-3.725-2.629-2.552-5.046-5.367-2.242-5.336-2.44-5.359v-5.154L288.974,691v-7.25l-1.8-6.685a7.943,7.943,0,0,1-2.323-3.658c-.581-2.2,1.108-4.145,0-5.159s0-3.133,0-3.133l4.122,4.742,3.794,3.549s4.962,1.853,5.759,2.821,4.158.837,4.158.837h2.868l.866,9.312-.866,25.016Z" transform="translate(-259.939 -381.924)" stroke="#000" stroke-width="1"/>
      <path id="Hair-2" data-name="Hair" d="M269.68,583.686v-5.625l-3.1-7.449-3.342-7.129-2.855-7.453v-42.3s-1-9.713,0-11.7a81.632,81.632,0,0,0,2.855-8.252l3.006-9.146,4.91-10.013-1.27-2.166-2.511-1.246,2.511-4.806,3.571-7.3,3.341-7.452,5.1-9.565L285.792,435s4.752-6.62,5.528-6.92,5.76-4.85,5.76-4.85l5.544-3.945,7.541-3.253s7.77-3.035,8.547-3.38,5.844-3.4,5.844-3.4l-1.371-4,3.012-5.815,6.546-4.461,10.216-3.893,13.936-3.991,17.911-3.714h33.564l5.9-1.452h6.649l7.519,1.452H434.2l3.793-1.452h7.949l2.022,1.452,3.063,1.3,3.9,1.2h7.632l3.2-1.2,4.593-1.3,10.578,1.3,6.4,1.2,7.244,1.214,7.133,1.519,8.433,2.943,10.052,2.063,9.713,2.737h2.674l4.866,1.082,1.953-1.082,1.178-1.6v-1.133h3.028l3.382,1.133,5.212,2.687h5.438l2.72,1.469,2.993,1.072s3.086,1.337,4.548,1.976a25.984,25.984,0,0,0,2.971,1.062h2.629l2.535,3.586v2.832l2.772,2.879V406.6l1.083-2.356,2.685,2.356,4,5.711,4.856,2.526,2.124,2.468,2.1,3.484,1.813,4.021,2.135,4.515,1.209,3.7s-.946,4.092,0,4.892,1.631,5.051,1.631,5.051l3.142-1.887,1.222-3.164,1.416,1.795v7.905l4.053-2.193V442.97l2.479-1.887h2.08l-3.111,6.536-2.6,6.009,3.63-1.872-2.479,4.649s-.138,5.759-1.15,6.513-3.42,1.531-2.9,2.628-1.416,4.273-1.416,4.273h5.469l4.56-2.979h3.323v4.329l-1.211,4.982-4.192,5.713-2.479,5.646-5.469,3.653-4.363,2.8-4.975,3.942-3.912,8.365c-.978,2.091-3.983,11.041-3.983,11.041l-1.187,3.337-4.062,6.262-3.4,4.091-3.642,2.558-6.413,2.683-1.433,1.119h-4.333v2.552l1.289,3.863v1.782l1.676,5.5v10.763l-1.676,1.8h-3.421l.645-15.379-19.252-33.352L526,487.4h0l-9.24,11.97-8.774,2.322-9.781,1.141h-7.119l-7.57-1.141-8.938-3.039-6.378-4.008-7.1-6.18-6.061-6.267-15.583-4.368h-3.884l-7.131,6.8-7.519,6.1-4.473,5.467H408.82l-8.015,1.819h-5.419l-5.51,2.472-5.121,2.115-7.842,5.34-10.37,9.645-9.8,9.221-6.363,6.256-3.51,4.027s-5.733,8.511-7.5,16.555a91.5,91.5,0,0,0-2.054,12.861l7.6,72.627-18.76-5.935-1.71-33.172-5.314-14.563-4.7-3.3-2.258-1.242-6.925-4.061-2.64-1.631-3.737-1.812-3.311-.839-3.861-1.977h-4.566l-3.352.773-3.723,1.2-2.994,1.772-2.292.879-1.6,1.631L272,578.787l-.811,2.143v1.242Z" transform="translate(-259.939 -381.924)" stroke="#000" stroke-width="1"/>
    </g>
    <g id="Beard" transform="translate(323.246 632.672)" opacity="0.516">
      <path id="beadr-left" d="M327.5,633.108l15.3,5.233h1.287v1.422h0l26.034,21.686V658.73l28.924,30.831-1.495-4.572,45.625,29.521-6.437,60.572-26.21-9.285-25.551-12.178-9.345-4.07L361.236,740.5l-20.56-11.7-5-8.605-9.658-18.186-2.167-18.694V669.773l1.873-36.665Z" transform="translate(-323.855 -633.108)" opacity="0.999"/>
      <path id="mostache" d="M450.443,701.114l1.693-20.87,66.843-38.631,7.265,2.692h17.63s-1.365,5.139,1.456,9.02,7.683,15.688,7.683,15.688l2.061,7.277,1.539,5.982-1.539,21.018h0l-6.454-22.317-5.644-13.716-8.933,1.756-7.8-3.359-63.019,20.638-12.782,14.823Z" transform="translate(-321.179 -632.108)"/>
      <path id="chin" d="M0,0,2.371,7.794l2.48,6.685,3.06,6.361L18.785,1.918Z" transform="translate(186.687 71.61) rotate(-6)"/>
      <path id="lower-right" d="M439.611,708.772l2.166,1.962,18.442,18.678,14.906,16.917,38.4,6.887,18.212-6.887,10.45-22.246-3.836,5.329,15.883-29.478c1.108,1.074-2,5.566-2,5.566s-3.213,8.813-5.876,18.583-3.775,14.651-4.174,25.42-3.836,14.538-3.836,14.538-5.3,7.9-11.5,10.887-7.268,3.667-15.667,5.485-7.658,1.932-17.6,2.043a131.02,131.02,0,0,0-18.453,1.569l-7.85-1.569s.678,1.311-7.056,0c-5.608-.951-15.4-4.64-20.608-6.55-2.608-.938-3.533-1.314-3.533-1.314Z" transform="translate(-323.855 -633.108)"/>
    </g>
  </g>
</svg>
