<svg xmlns="http://www.w3.org/2000/svg" viewBox="0 0 473.866 780">
  <defs>
    <style>
      .cls-1, .cls-5, .cls-6, .cls-7, .cls-8 {
        fill: #fff;
      }

      .cls-1 {
        stroke: #707070;
      }

      .cls-2 {
        fill: #e0c29e;
      }

      .cls-3 {
        fill: #edddca;
      }

      .cls-4 {
        fill: rgba(245,237,226,0.65);
      }

      .cls-6 {
        font-size: 27px;
      }

      .cls-11, .cls-6, .cls-7, .cls-8 {
        font-family: HelveticaNeue, Helvetica Neue;
      }

      .cls-11, .cls-7 {
        font-size: 20px;
      }

      .cls-8 {
        font-size: 65px;
      }

      .cls-9 {
        font-size: 30px;
      }

      .cls-10 {
        font-size: 24px;
      }

      .cls-11 {
        fill: #9b703c;
      }

      .cls-12 {
        fill: rgba(224,194,158,0.4);
        stroke: #c4c4c4;
        stroke-width: 0.2px;
      }

      .cls-13 {
        stroke: none;
      }

      .cls-14 {
        fill: none;
      }
    </style>
  </defs>
  <g id="proice02" transform="translate(-786.134 -125)">
    <g id="Price01" transform="translate(0)">
      <g id="Rectangle_3" data-name="Rectangle 3" class="cls-1" transform="translate(791 125)">
        <rect class="cls-13" width="469" height="780"/>
        <rect class="cls-14" x="0.5" y="0.5" width="468" height="779"/>
      </g>
      <g id="Group_12" data-name="Group 12">
        <path id="Subtraction_1" data-name="Subtraction 1" class="cls-2" d="M-5735.635,326.585a134.251,134.251,0,0,1-28.416-2.912,101.453,101.453,0,0,1-22.841-7.762,73.284,73.284,0,0,1-16.888-11.148,48.572,48.572,0,0,1-10.553-13.07h-.237c-2.274-12.522-11.336-24.066-25.518-32.505a90.715,90.715,0,0,0-23.652-9.674,112.652,112.652,0,0,0-28.261-3.52,112.652,112.652,0,0,0-28.261,3.52,90.715,90.715,0,0,0-23.652,9.674c-14.181,8.439-23.243,19.983-25.517,32.505h-.57V0h469V291.693h-.57c-2.274-12.522-11.336-24.066-25.517-32.505a90.715,90.715,0,0,0-23.652-9.674,112.652,112.652,0,0,0-28.261-3.52,112.594,112.594,0,0,0-28.385,3.552,90.52,90.52,0,0,0-23.724,9.759c-14.217,8.518-23.233,20.151-25.386,32.756a49.564,49.564,0,0,1-10.816,12.954,75.3,75.3,0,0,1-17.087,11.028,103.728,103.728,0,0,1-22.921,7.668A135.391,135.391,0,0,1-5735.635,326.585Z" transform="translate(6761 125)"/>
      </g>
      <path id="Path_23" data-name="Path 23" class="cls-3" d="M6922.235,404.958c-5.929,27.7,73.333,94.851,116.334,51.935s36.916-47.726,37.228-47.2" transform="translate(-5970.791 6.276)"/>
      <path id="Path_27" data-name="Path 27" class="cls-2" d="M70.64,0c39.062,0,94.2,27.042,89.787,55.134S121.179,91.254,82.116,91.254,8.317,70.332,3.525,40.872,31.578,0,70.64,0Z" transform="translate(938.812 384.906) rotate(-14)"/>
      <path id="Path_24" data-name="Path 24" class="cls-4" d="M6761.52,416.537s13.55-58.718,52.8-71.552c21.739-7.111,62.484-7.465,99.222,60.766" transform="translate(-5970)"/>
      <path id="Path_25" data-name="Path 25" class="cls-3" d="M7113.047,377.373s96.414-57.459,116.224,37.115" transform="translate(-5970)"/>
      <path id="Path_26" data-name="Path 26" class="cls-5" d="M72.682-1.647c40.2,0,75.363,22.864,75.363,47.44S112.887,89,72.682,89-5.062,69.077-5.062,44.5,32.477-1.647,72.682-1.647Z" transform="translate(1111 371)"/>
      <text id="Enterprise_Plan" data-name="Enterprise Plan" class="cls-6" transform="translate(846 201)"><tspan x="0" y="0">Enterprise Plan</tspan></text>
      <path id="Path_28" data-name="Path 28" class="cls-5" d="M76.871,0c42.454,0,76.871,24.805,76.871,55.4,0,5.294,15.276,17.574,13.247,22.686C157.9,101,111.98,110.808,76.871,110.808,34.416,110.808,0,86,0,55.4S34.416,0,76.871,0Z" transform="matrix(0.995, 0.105, -0.105, 0.995, 797.716, 361.736)"/>
      <text id="_" data-name="$" class="cls-7" transform="translate(846 262)"><tspan x="0" y="0">$</tspan></text>
    </g>
    <text id="_99_months" data-name="99/months" class="cls-8" transform="translate(869 306)"><tspan x="0" y="0">99</tspan><tspan class="cls-9" y="0">/</tspan><tspan class="cls-10" y="0">months</tspan></text>
    <text id="Community_500_pages_200_header_Variation_50_home_page_options_24_7_support_E-commerce" data-name="Community

500+ pages

200+ header Variation

50+ home page options

24/7 support

E-commerce" class="cls-11" transform="translate(880 520)"><tspan x="0" y="0">Community</tspan><tspan x="0" y="24"></tspan><tspan x="0" y="48">500+ pages</tspan><tspan x="0" y="72"></tspan><tspan x="0" y="96">200+ header Variation</tspan><tspan x="0" y="120"></tspan><tspan x="0" y="144">50+ home page options</tspan><tspan x="0" y="168"></tspan><tspan x="0" y="192">24/7 support</tspan><tspan x="0" y="216"></tspan><tspan x="0" y="240">E-commerce</tspan></text>
    <g id="Group_13" data-name="Group 13" transform="translate(-2 43)">
      <g id="Rectangle_5" data-name="Rectangle 5" class="cls-12" transform="translate(882 749)">
        <rect class="cls-13" width="287" height="56"/>
        <rect class="cls-14" x="0.1" y="0.1" width="286.8" height="55.8"/>
      </g>
      <text id="Get_Started" data-name="Get Started" class="cls-11" transform="translate(974 785)"><tspan x="0" y="0">Get Started</tspan></text>
    </g>
  </g>
</svg>
