<svg xmlns="http://www.w3.org/2000/svg" width="375" height="126.292" viewBox="0 0 375 126.292">
  <defs>
    <style>
      .cls-1 {
        fill: #2f3a41;
      }

      .cls-2, .cls-3 {
        stroke: none;
      }

      .cls-3 {
        fill: #707070;
      }
    </style>
  </defs>
  <g id="Intersection_1" data-name="Intersection 1" class="cls-1" transform="translate(1906.198 1514.658)">
    <path class="cls-2" d="M -1531.697998046875 -1389.078857421875 C -1547.362670898438 -1394.822631835938 -1563.589233398438 -1404.905883789062 -1581.278442382812 -1419.884887695312 C -1589.546875 -1426.886840820312 -1596.913208007812 -1432.628051757812 -1603.79833984375 -1437.436401367188 C -1611.635864257812 -1442.909912109375 -1618.997314453125 -1447.291870117188 -1626.303466796875 -1450.832885742188 C -1634.222778320312 -1454.671142578125 -1641.952514648438 -1457.467041015625 -1649.93408203125 -1459.380615234375 C -1658.359130859375 -1461.400390625 -1666.823486328125 -1462.382202148438 -1675.810668945312 -1462.382202148438 C -1683.49560546875 -1462.382202148438 -1691.634399414062 -1461.626953125 -1700.0009765625 -1460.137451171875 C -1708.550659179688 -1458.615356445312 -1717.703125 -1456.261840820312 -1727.203857421875 -1453.142578125 C -1730.525024414062 -1452.052368164062 -1734.563110351562 -1451.49951171875 -1739.206176757812 -1451.49951171875 C -1743.437622070312 -1451.49951171875 -1748.15185546875 -1451.934936523438 -1753.6181640625 -1452.830932617188 C -1758.507568359375 -1453.632202148438 -1763.896484375 -1454.787353515625 -1770.093017578125 -1456.3623046875 C -1781.63232421875 -1459.295166015625 -1793.844482421875 -1463.134765625 -1806.773559570312 -1467.199829101562 L -1808.660278320312 -1467.792846679688 C -1822.636474609375 -1472.185302734375 -1835.176879882812 -1476.061767578125 -1847.115600585938 -1479.019287109375 C -1861.007080078125 -1482.460693359375 -1872.153442382812 -1484.133544921875 -1881.191528320312 -1484.133544921875 C -1886.612670898438 -1484.133544921875 -1891.4267578125 -1483.522705078125 -1895.500122070312 -1482.317749023438 C -1899.485717773438 -1481.138916015625 -1902.910766601562 -1479.349487304688 -1905.6982421875 -1476.991821289062 L -1905.6982421875 -1514.15771484375 L -1531.697998046875 -1514.15771484375 L -1531.697998046875 -1389.078857421875 Z"/>
    <path class="cls-3" d="M -1532.197998046875 -1389.797241210938 L -1532.197998046875 -1513.65771484375 L -1905.1982421875 -1513.65771484375 L -1905.1982421875 -1478.039428710938 C -1902.516357421875 -1480.115234375 -1899.3115234375 -1481.7119140625 -1895.641967773438 -1482.797241210938 C -1891.5224609375 -1484.015747070312 -1886.66064453125 -1484.633544921875 -1881.191528320312 -1484.633544921875 C -1872.1123046875 -1484.633544921875 -1860.926635742188 -1482.955932617188 -1846.995361328125 -1479.504638671875 C -1835.04296875 -1476.543701171875 -1822.49462890625 -1472.664794921875 -1808.510375976562 -1468.269897460938 L -1806.623168945312 -1467.676635742188 C -1793.700927734375 -1463.61376953125 -1781.495361328125 -1459.776245117188 -1769.9697265625 -1456.846801757812 C -1763.787231445312 -1455.275390625 -1758.412109375 -1454.123168945312 -1753.537231445312 -1453.324340820312 C -1748.098022460938 -1452.432861328125 -1743.410278320312 -1451.99951171875 -1739.206176757812 -1451.99951171875 C -1734.6162109375 -1451.99951171875 -1730.630493164062 -1452.5439453125 -1727.35986328125 -1453.617553710938 C -1717.836791992188 -1456.744262695312 -1708.661376953125 -1459.103515625 -1700.088623046875 -1460.629760742188 C -1691.693115234375 -1462.124389648438 -1683.52490234375 -1462.882202148438 -1675.810668945312 -1462.882202148438 C -1638.852172851562 -1462.882202148438 -1611.161743164062 -1445.846069335938 -1580.955322265625 -1420.2666015625 C -1563.565307617188 -1405.540771484375 -1547.598510742188 -1395.561157226562 -1532.197998046875 -1389.797241210938 M -1531.197998046875 -1388.365478515625 C -1547.591186523438 -1394.253173828125 -1564.122436523438 -1404.7021484375 -1581.6015625 -1419.50341796875 C -1612.115966796875 -1445.34375 -1639.470581054688 -1461.882202148438 -1675.810668945312 -1461.882202148438 C -1691.019897460938 -1461.882202148438 -1707.796020507812 -1458.988403320312 -1727.0478515625 -1452.66748046875 C -1730.56591796875 -1451.512573242188 -1734.655029296875 -1450.99951171875 -1739.206176757812 -1450.99951171875 C -1757.353881835938 -1450.99951171875 -1782.850952148438 -1459.157592773438 -1808.810180664062 -1467.31591796875 C -1834.768676757812 -1475.473999023438 -1861.192993164062 -1483.633544921875 -1881.191528320312 -1483.633544921875 C -1891.585083007812 -1483.633544921875 -1900.240600585938 -1481.431030273438 -1906.1982421875 -1475.879516601562 L -1906.1982421875 -1514.65771484375 L -1531.197998046875 -1514.65771484375 L -1531.197998046875 -1388.365478515625 Z"/>
  </g>
</svg>
