<svg xmlns="http://www.w3.org/2000/svg" xmlns:xlink="http://www.w3.org/1999/xlink" viewBox="0 0 391.394 464.801">
  <defs>
    <style>
      .cls-1 {
        fill: #fff;
        stroke: #707070;
      }

      .cls-2 {
        fill: #a7ffe5;
      }

      .cls-3 {
        clip-path: url(#clip-path);
      }

      .cls-4 {
        fill: #59c9a8;
      }
    </style>
    <clipPath id="clip-path">
      <path id="Path_17" data-name="Path 17" class="cls-1" d="M142.385.358c78.2-.152,141.4,64.7,141.172,144.857S219.746,290.468,141.548,290.62.145,225.917.376,145.763,64.187.509,142.385.358Z" transform="matrix(0.995, -0.105, 0.105, 0.995, 1553.318, 553.659)"/>
    </clipPath>
  </defs>
  <g id="Group_9" data-name="Group 9" transform="translate(-1498.318 -365)">
    <circle id="Ellipse_2" data-name="Ellipse 2" class="cls-2" cx="175" cy="175" r="175" transform="translate(1519 365)"/>
    <g id="Mask_Group_1" data-name="Mask Group 1" class="cls-3" transform="translate(-140.833 478.239) rotate(-17)">
      <g id="settings-gears" transform="translate(1618.009 594.762)">
        <path id="Path_14" data-name="Path 14" class="cls-4" d="M13.786,78.442a53.953,53.953,0,0,0,4.591,11.239l-5.523,7.2a6.058,6.058,0,0,0,.436,7.833l9.533,9.844a5.568,5.568,0,0,0,7.584.448l6.924-5.659a49.578,49.578,0,0,0,11.312,4.95l1.046,9.209a5.79,5.79,0,0,0,5.67,5.226l13.474.01a5.768,5.768,0,0,0,5.66-5.218l.985-8.881a49.922,49.922,0,0,0,12.116-5.05l6.708,5.483a5.589,5.589,0,0,0,7.583-.437l9.516-9.83a6.028,6.028,0,0,0,.422-7.832l-5.22-6.834a52.223,52.223,0,0,0,4.977-12.3l8.034-.95a5.821,5.821,0,0,0,5.051-5.847l-.012-13.917a5.844,5.844,0,0,0-5.061-5.855l-7.923-.962a52.77,52.77,0,0,0-4.8-12.172l4.87-6.36a6.058,6.058,0,0,0-.436-7.833l-9.51-9.821a5.568,5.568,0,0,0-7.584-.448l-5.977,4.891a49.458,49.458,0,0,0-12.4-5.371l-.91-8a5.79,5.79,0,0,0-5.67-5.226L55.788-.039a5.767,5.767,0,0,0-5.66,5.218l-.9,8a49.091,49.091,0,0,0-12.7,5.539l-6.211-5.086a5.589,5.589,0,0,0-7.583.437l-9.516,9.83a6.029,6.029,0,0,0-.422,7.832l5.2,6.787A51.622,51.622,0,0,0,13.31,50.795l-8.3.973A5.821,5.821,0,0,0-.045,57.615l.012,13.917a5.844,5.844,0,0,0,5.061,5.855ZM62.571,40.831c12.278.009,22.285,10.343,22.3,23.024s-9.978,23-22.256,22.992S40.326,76.5,40.315,63.823,50.293,40.822,62.571,40.831Z" transform="matrix(0.999, 0.035, -0.035, 0.999, -13.808, -0.628)"/>
        <path id="Path_15" data-name="Path 15" class="cls-4" d="M181.318,71.669l-7.03-5.776a5.675,5.675,0,0,0-7.409.2L163,69.628a40.93,40.93,0,0,0-10.355-3.257l-1.093-5.211a5.591,5.591,0,0,0-5.936-4.343l-9.172.76a5.5,5.5,0,0,0-5.11,5.233l-.178,5.3a40.643,40.643,0,0,0-9.886,5.059l-4.641-3a5.684,5.684,0,0,0-7.342,1.021l-5.936,6.883a5.3,5.3,0,0,0,.2,7.209l4.062,4.212a39.665,39.665,0,0,0-2.99,9.641l-5.8,1.151a5.486,5.486,0,0,0-4.463,5.776l.781,8.924a5.524,5.524,0,0,0,5.378,4.972l6.271.2a39.51,39.51,0,0,0,4.441,8.251l-3.5,5.146a5.324,5.324,0,0,0,1.049,7.144l7.03,5.776a5.676,5.676,0,0,0,7.409-.2l4.6-4.191a41.087,41.087,0,0,0,9.439,3l1.272,6.123a5.591,5.591,0,0,0,5.936,4.343l9.172-.76a5.5,5.5,0,0,0,5.11-5.233l.2-5.993a41.7,41.7,0,0,0,9.439-4.647l5.066,3.257a5.684,5.684,0,0,0,7.342-1.021l5.936-6.84a5.3,5.3,0,0,0-.2-7.209l-4.084-4.212a38.359,38.359,0,0,0,3.214-9.685l5.579-1.107a5.486,5.486,0,0,0,4.463-5.776l-.781-8.924a5.524,5.524,0,0,0-5.378-4.972l-5.6-.174a39.037,39.037,0,0,0-4.664-8.946l3.057-4.473A5.3,5.3,0,0,0,181.318,71.669Zm-34.567,51.592a17.891,17.891,0,0,1-19.482-16A17.7,17.7,0,0,1,143.716,88.3a17.892,17.892,0,0,1,19.482,16A17.694,17.694,0,0,1,146.751,123.261Z" transform="translate(15.595 6.226)"/>
        <path id="Path_16" data-name="Path 16" class="cls-4" d="M41.049,141.925a5.484,5.484,0,0,0-5,5.342l-.067,5.494a5.462,5.462,0,0,0,4.865,5.45l4.151.521a30.858,30.858,0,0,0,2.946,7.014l-2.678,3.214a5.306,5.306,0,0,0,.335,7.209l3.95,3.93a5.685,5.685,0,0,0,7.409.5l3.325-2.5a33.067,33.067,0,0,0,7.409,3.149l.446,4.169a5.519,5.519,0,0,0,5.49,4.864l5.646.065a5.515,5.515,0,0,0,5.6-4.734l.513-3.952a34.092,34.092,0,0,0,8.034-3.04l3.124,2.454a5.679,5.679,0,0,0,7.409-.326L108,176.906a5.315,5.315,0,0,0,.513-7.209l-2.388-3.018a31.058,31.058,0,0,0,3.392-7.6l3.7-.369a5.484,5.484,0,0,0,5-5.342l.067-5.494a5.462,5.462,0,0,0-4.865-5.45l-3.615-.456a32.192,32.192,0,0,0-3.057-7.6L109,131.676a5.306,5.306,0,0,0-.335-7.209l-3.95-3.93a5.685,5.685,0,0,0-7.409-.5l-2.7,2.019a33.3,33.3,0,0,0-8.123-3.431l-.357-3.409a5.519,5.519,0,0,0-5.49-4.864l-5.646-.065a5.515,5.515,0,0,0-5.6,4.734l-.446,3.388a34.24,34.24,0,0,0-8.413,3.344l-2.789-2.215a5.679,5.679,0,0,0-7.409.326l-4.062,3.865a5.314,5.314,0,0,0-.513,7.209l2.388,3a31.3,31.3,0,0,0-3.191,7.6Zm36.442-6.21a14.294,14.294,0,1,1-14.863,14.114A14.491,14.491,0,0,1,77.491,135.715Z" transform="translate(7.437 11.417)"/>
      </g>
    </g>
  </g>
</svg>
