<svg xmlns="http://www.w3.org/2000/svg" viewBox="0 0 350 411.643">
  <defs>
    <style>
      .cls-1 {
        fill: #a7c2f4;
      }

      .cls-2 {
        fill: #c8d8f5;
      }

      .cls-3 {
        fill: #387cf6;
      }
    </style>
  </defs>
  <g id="Group_10" data-name="Group 10" transform="translate(-1092 -337)">
    <path id="Path_18" data-name="Path 18" class="cls-1" d="M175,0A175,175,0,1,1,0,175,175,175,0,0,1,175,0Z" transform="translate(1092 337)"/>
    <path id="Path_13" data-name="Path 13" class="cls-2" d="M27.5,17.7C57.652.2,54.709-17.88,54.709-7.939S42.688,36,27.5,36-5.522,11.719-5.522,1.778-2.652,35.195,27.5,17.7Z" transform="translate(1244 642)"/>
    <path id="Path_12" data-name="Path 12" class="cls-3" d="M61.441-43.606s7.553-1.828,7.973,1.952c3.547,9.63,1.071,9.635,6.391,19.177,17.733,31.8,53.6,63.31,59.377,100.624,6.048,50.37-15.846,90.083-61.841,97.115C35.228,185.9,4.879,161.386-7.478,140.311s-19.047-59.7,15.107-99.469C31.695,17.969,38.406,39.45,35.82,67.969,34.345,84.231,41.1,93.6,48.827,97.153c6.938,3.2,11.765,1.912,11.765,1.912S74.73,96.443,77.11,86.572c5.227-15.7-24.937-69.418-24.937-69.418s-7.2-10.672-3.347-27.266S61.441-43.606,61.441-43.606Z" transform="translate(1212 570.814)"/>
  </g>
</svg>
