<svg xmlns="http://www.w3.org/2000/svg" viewBox="0 0 350 421.85">
  <defs>
    <style>
      .cls-1 {
        fill: #ffd3d0;
      }

      .cls-2 {
        fill: #de4437;
      }
    </style>
  </defs>
  <g id="Group_11" data-name="Group 11" transform="translate(-698 -337)">
    <circle id="Ellipse_2" data-name="Ellipse 2" class="cls-1" cx="175" cy="175" r="175" transform="translate(698 337)"/>
    <g id="Group_8" data-name="Group 8">
      <path id="Path_7" data-name="Path 7" class="cls-2" d="M.812-8.543s-2.158-4.034,28.967-3.372S57.711-8.742,57.711-8.742s5.548,35.355,1.963,60.653-14.34,48.12-14.34,48.12A31.369,31.369,0,0,1,31.4,103.772c-7.455,0-15.882-3.742-15.882-3.742A145.109,145.109,0,0,1-.342,51.911C-4.017,24.768.812-8.543.812-8.543Z" transform="translate(831.941 530.315) rotate(-13)"/>
      <path id="Path_8" data-name="Path 8" class="cls-2" d="M-.539-2.933s-.914-9.532,27.417-8.979,27.21,8.979,27.21,8.979,3.263,23.186,0,44.3S41.035,81.544,41.035,81.544a30.464,30.464,0,0,1-12.687,3.123c-6.786,0-14.456-3.123-14.456-3.123S3.069,62.491-.539,41.372-.539-2.933-.539-2.933Z" transform="translate(864.803 747.127) rotate(-155)"/>
      <path id="Path_9" data-name="Path 9" class="cls-2" d="M-.577-3.959S-1.469-12.4,26.2-11.914,52.774-3.959,52.774-3.959s3.187,20.544,0,39.256S40.026,70.892,40.026,70.892a32.122,32.122,0,0,1-12.39,2.768c-6.627,0-14.118-2.768-14.118-2.768S2.947,54.01-.577,35.3-.577-3.959-.577-3.959Z" transform="translate(975.365 691.259) rotate(135)"/>
      <path id="Path_10" data-name="Path 10" class="cls-2" d="M-.833-4.569s-.746-7.8,22.4-7.347S43.789-4.569,43.789-4.569s2.666,18.972,0,36.253S33.127,64.555,33.127,64.555a24.852,24.852,0,0,1-10.363,2.556c-5.543,0-11.808-2.556-11.808-2.556S2.114,48.965-.833,31.684-.833-4.569-.833-4.569Z" transform="translate(783.292 650.914) rotate(-82)"/>
      <path id="Path_11" data-name="Path 11" class="cls-2" d="M-.594-3.891s-.882-8.518,26.482-8.023S52.171-3.891,52.171-3.891s3.152,20.719,0,39.591S39.563,71.6,39.563,71.6a31.276,31.276,0,0,1-12.254,2.791c-6.554,0-13.963-2.791-13.963-2.791S2.891,54.572-.594,35.7-.594-3.891-.594-3.891Z" transform="matrix(0.53, 0.848, -0.848, 0.53, 966.464, 569.362)"/>
    </g>
  </g>
</svg>
